M48
INCH
T01C0.0200
T02C0.0300
T03C0.0400
%
T01
X+012000Y+005000
X+012500Y+010500
X+006500Y+009750
T02
X+008500Y+005000
X+009500Y+005000
X+008500Y-001000
X+007500Y+005000
X+007500Y-001000
X+006500Y-001000
X+009500Y-001000
X+005500Y-001000
X+005500Y+005000
X+006500Y+005000
X+002000Y+005000
X+003000Y+005000
X+002000Y-001000
X+001000Y+005000
X+001000Y-001000
X+000000Y-001000
X+003000Y-001000
X-001000Y-001000
X-001000Y+005000
X+000000Y+005000
X+014000Y+002000
X+014000Y+003000
X+014000Y+004000
X+014000Y+005000
X+011000Y+005000
X+011000Y+004000
X+011000Y+003000
X+011000Y+002000
X-003500Y+009000
X-002500Y+009000
X-001500Y+009000
X-000500Y+009000
X+000500Y+009000
X+001500Y+009000
X+002500Y+009000
X+003500Y+009000
X+003500Y+012000
X+002500Y+012000
X+001500Y+012000
X+000500Y+012000
X-000500Y+012000
X-001500Y+012000
X-002500Y+012000
X-003500Y+012000
X+005500Y+009000
X+006500Y+009000
X+007500Y+009000
X+008500Y+009000
X+009500Y+009000
X+010500Y+009000
X+011500Y+009000
X+012500Y+009000
X+012500Y+012000
X+011500Y+012000
X+010500Y+012000
X+009500Y+012000
X+008500Y+012000
X+007500Y+012000
X+006500Y+012000
X+005500Y+012000
X+015500Y+012000
X+015500Y+008000
X+017000Y+012000
X+017000Y+008000
X+019000Y+009500
X+019000Y+010500
T03
X+013000Y-001500
X+013000Y-000500
X+015000Y-001500
X+015000Y-000500
X+017000Y-001500
X+017000Y-000500
M30
